<?xml version="1.0" encoding="utf-8"?>
<!-- Generator: Adobe Illustrator 27.5.0, SVG Export Plug-In . SVG Version: 6.00 Build 0)  -->
<svg version="1.1" id="Layer_1" xmlns="http://www.w3.org/2000/svg" xmlns:xlink="http://www.w3.org/1999/xlink" x="0px" y="0px"
	 viewBox="0 0 320 132" style="enable-background:new 0 0 320 132;" xml:space="preserve">
<style type="text/css">
	.st0{fill:#4B9CD3;}
</style>
<g>
	<path class="st0" d="M162.8,45.3v18.2H181C179.8,54.1,172.3,46.6,162.8,45.3L162.8,45.3z"/>
	<path class="st0" d="M157.2,87.4V69.2H139c0.3,2.1,0.8,4,1.7,5.9c0.9-0.3,1.8-0.5,2.8-0.5c4.4,0,8,3.6,8,8c0,1-0.2,2.1-0.6,3
		C152.8,86.4,154.9,87,157.2,87.4L157.2,87.4z"/>
	<path class="st0" d="M162.8,25.5v14.2c12.6,1.3,22.6,11.3,23.9,23.9h14.2c-0.5-7.7-3.2-14.9-7.4-20.8c-0.5,0.1-0.9,0.1-1.4,0.1
		c-4.4,0-8-3.6-8-8c0-0.5,0.1-1,0.1-1.6C178.1,28.8,170.8,26,162.8,25.5L162.8,25.5z"/>
	<path class="st0" d="M162.8,87.4c9.4-1.3,16.9-8.7,18.2-18.2h-18.2L162.8,87.4L162.8,87.4z"/>
	<path class="st0" d="M190.1,90.2c1,0,1.9,0.2,2.8,0.5c4.6-6.1,7.4-13.5,8-21.6h-14.2c-1.3,12.6-11.3,22.6-23.9,23.9v14.2
		c7.2-0.5,13.9-2.9,19.6-6.6c-0.2-0.8-0.4-1.6-0.4-2.4C182.1,93.8,185.7,90.2,190.1,90.2L190.1,90.2z"/>
	<path class="st0" d="M139,63.5h15.3l-13.1-7C140.1,58.6,139.3,61,139,63.5L139,63.5z"/>
	<path class="st0" d="M225.5,69.2h-19c-0.6,9.3-3.8,18-9.4,25.4c0.6,1.1,0.9,2.3,0.9,3.6c0,4.4-3.6,8-8,8c-1.5,0-2.9-0.4-4-1.1
		c-6.9,4.6-14.8,7.3-23.2,7.8v19C196.8,130.4,224.1,103.1,225.5,69.2L225.5,69.2z"/>
	<path class="st0" d="M162.8,0.8v19c8.9,0.5,17.3,3.5,24.4,8.7c1.3-1,3-1.6,4.8-1.6c4.4,0,8,3.6,8,8c0,1.8-0.6,3.5-1.7,4.9
		c4.9,7,7.7,15.2,8.2,23.8h19C224.1,29.5,196.8,2.3,162.8,0.8L162.8,0.8z"/>
	<path class="st0" d="M157.2,131.8v-19c-11.4-0.7-22-5.4-30.1-13.6c-8.1-8.1-12.9-18.7-13.6-30.1h-19
		C96,103.1,123.2,130.4,157.2,131.8L157.2,131.8z"/>
	<path class="st0" d="M119.2,63.5h14.2c0.4-3.5,1.4-6.7,3-9.7l-12.4-6.7C121.2,52.1,119.6,57.6,119.2,63.5L119.2,63.5z"/>
	<g>
		<path class="st0" d="M157.2,45.3c-2.7,0.3-5.2,1.2-7.5,2.5l7.5,14.1V45.3L157.2,45.3z"/>
		<path class="st0" d="M157.2,0.8C147,1.3,137.4,4,128.9,8.6l8.9,16.7c5.9-3.2,12.5-5.1,19.4-5.5V0.8L157.2,0.8z"/>
		<path class="st0" d="M157.2,25.5c-6,0.4-11.7,2.1-16.7,4.9l6.6,12.4c3.1-1.7,6.5-2.8,10.1-3.2V25.5L157.2,25.5z"/>
	</g>
	<path class="st0" d="M118.9,44.4l-16.7-9c-4.5,8.4-7.2,17.9-7.6,28h19C113.9,56.8,115.7,50.3,118.9,44.4L118.9,44.4z"/>
	<path class="st0" d="M157.2,107.2V93c-3.7-0.4-7.3-1.6-10.4-3.3c-1,0.5-2.1,0.7-3.3,0.7c-4.4,0-8-3.6-8-8c0-1.3,0.3-2.4,0.8-3.5
		c-1.6-3-2.6-6.3-3-9.8h-14.2C120.6,89.5,136.9,105.8,157.2,107.2L157.2,107.2z"/>
</g>
</svg>
