<?xml version="1.0" encoding="utf-8"?>
<!-- Generator: Adobe Illustrator 27.5.0, SVG Export Plug-In . SVG Version: 6.00 Build 0)  -->
<svg version="1.1" id="Layer_1" xmlns="http://www.w3.org/2000/svg" xmlns:xlink="http://www.w3.org/1999/xlink" x="0px" y="0px"
	 viewBox="0 0 132 132" style="enable-background:new 0 0 132 132;" xml:space="preserve">
<style type="text/css">
	.st0{fill:#4B9CD3;}
</style>
<g>
	<path class="st0" d="M68.8,45.3v18.2H87C85.8,54.1,78.3,46.6,68.8,45.3L68.8,45.3z"/>
	<path class="st0" d="M63.2,87.4V69.2H45c0.3,2.1,0.8,4,1.7,5.9c0.9-0.3,1.8-0.5,2.8-0.5c4.4,0,8,3.6,8,8c0,1-0.2,2.1-0.6,3
		C58.8,86.4,60.9,87,63.2,87.4L63.2,87.4z"/>
	<path class="st0" d="M68.8,25.5v14.2C81.4,41,91.4,51,92.7,63.6h14.2c-0.5-7.7-3.2-14.9-7.4-20.8c-0.5,0.1-0.9,0.1-1.4,0.1
		c-4.4,0-8-3.6-8-8c0-0.5,0.1-1,0.1-1.6C84.1,28.8,76.8,26,68.8,25.5L68.8,25.5z"/>
	<path class="st0" d="M68.8,87.4c9.4-1.3,16.9-8.7,18.2-18.2H68.8V87.4L68.8,87.4z"/>
	<path class="st0" d="M96.1,90.2c1,0,1.9,0.2,2.8,0.5c4.6-6.1,7.4-13.5,8-21.6H92.7C91.4,81.7,81.4,91.7,68.8,93v14.2
		c7.2-0.5,13.9-2.9,19.6-6.6C88.2,99.8,88,99,88,98.2C88.1,93.8,91.7,90.2,96.1,90.2L96.1,90.2z"/>
	<path class="st0" d="M45,63.5h15.3l-13.1-7C46.1,58.6,45.3,61,45,63.5L45,63.5z"/>
	<path class="st0" d="M131.5,69.2h-19c-0.6,9.3-3.8,18-9.4,25.4c0.6,1.1,0.9,2.3,0.9,3.6c0,4.4-3.6,8-8,8c-1.5,0-2.9-0.4-4-1.1
		c-6.9,4.6-14.8,7.3-23.2,7.8v19C102.8,130.4,130.1,103.1,131.5,69.2L131.5,69.2z"/>
	<path class="st0" d="M68.8,0.8v19c8.9,0.5,17.3,3.5,24.4,8.7c1.3-1,3-1.6,4.8-1.6c4.4,0,8,3.6,8,8c0,1.8-0.6,3.5-1.7,4.9
		c4.9,7,7.7,15.2,8.2,23.8h19C130.1,29.5,102.8,2.3,68.8,0.8L68.8,0.8z"/>
	<path class="st0" d="M63.2,131.8v-19c-11.4-0.7-22-5.4-30.1-13.6C25,91.1,20.2,80.5,19.5,69.1h-19C2,103.1,29.2,130.4,63.2,131.8
		L63.2,131.8z"/>
	<path class="st0" d="M25.2,63.5h14.2c0.4-3.5,1.4-6.7,3-9.7L30,47.1C27.2,52.1,25.6,57.6,25.2,63.5L25.2,63.5z"/>
	<g>
		<path class="st0" d="M63.2,45.3c-2.7,0.3-5.2,1.2-7.5,2.5l7.5,14.1V45.3L63.2,45.3z"/>
		<path class="st0" d="M63.2,0.8C53,1.3,43.4,4,34.9,8.6l8.9,16.7c5.9-3.2,12.5-5.1,19.4-5.5L63.2,0.8L63.2,0.8z"/>
		<path class="st0" d="M63.2,25.5c-6,0.4-11.7,2.1-16.7,4.9l6.6,12.4c3.1-1.7,6.5-2.8,10.1-3.2L63.2,25.5L63.2,25.5z"/>
	</g>
	<path class="st0" d="M24.9,44.4l-16.7-9c-4.5,8.4-7.2,17.9-7.6,28h19C19.9,56.8,21.7,50.3,24.9,44.4L24.9,44.4z"/>
	<path class="st0" d="M63.2,107.2V93c-3.7-0.4-7.3-1.6-10.4-3.3c-1,0.5-2.1,0.7-3.3,0.7c-4.4,0-8-3.6-8-8c0-1.3,0.3-2.4,0.8-3.5
		c-1.6-3-2.6-6.3-3-9.8H25.1C26.6,89.5,42.9,105.8,63.2,107.2L63.2,107.2z"/>
</g>
</svg>
